<svg width="73" height="52" viewBox="0 0 73 52" fill="blue" xmlns="http://www.w3.org/2000/svg">
<path d="M31.981 9.16159C30.605 9.64076 29.2725 10.2561 28 11C30.3118 9.29739 32.8653 8.01919 35.5585 7.2165C36.6545 6.89426 37.7694 6.65302 38.8954 6.49441C42.067 6.20557 45.4805 6.02472 49.1011 6H49.2041C49.605 6.13095 49.9781 6.34673 50.302 6.63492C50.5798 6.88295 50.816 7.1814 51 7.51704C42.6728 7.61332 39.5 7.51704 36 8C34.9572 8.20036 34.7256 8.30354 34 8.5C33.2744 8.69646 31.981 9.16159 31.981 9.16159Z" fill="white"/>
<path fill-rule="evenodd" clip-rule="evenodd" d="M72.9999 15.8435C73.0142 14.6672 71.5595 13.8736 70.9065 13.5173L70.8963 13.5118C69.3844 12.6841 67.84 12.6841 66.9065 12.7811C66.313 11.3101 65.4462 9.96112 64.3505 8.80349C63.5932 8.00471 62.7327 7.30742 61.791 6.72954C61.5467 6.64478 61.3116 6.57095 61.0726 6.49587C60.9781 6.46621 60.8831 6.43636 60.7866 6.40557C58.4419 6.21165 55.964 6.06976 53.3636 6C53.0482 6.1383 52.763 6.33544 52.5236 6.58056C52.3146 6.80013 52.1388 7.04822 52.0017 7.3172C54.5504 7.29947 57.3283 7.30656 60.2814 7.34321C61.2868 9.8444 62.0339 12.31 62 15H37L28.5 25L20 24.5L34 15H33L18 24H14.0791L32 15H22C19.3999 15.539 16.5578 16.4887 14.0791 17.4315C12.0523 18.2024 9.8528 19.0561 7.26687 20.7529C6.20088 21.4521 5.18234 22.2192 4.21775 23.0491C4.23774 23.6214 4.32226 24.1897 4.46974 24.7435C4.6198 25.3077 4.83648 25.8525 5.11532 26.367C4.73195 26.7906 4.39527 27.2532 4.11095 27.7468C3.80766 28.2698 3.5661 28.8252 3.39097 29.4022C3.10573 29.087 2.87542 28.7274 2.70939 28.338C2.5563 27.9788 2.45882 27.599 2.4202 27.2112C2.1802 27.9739 1.94021 28.7401 1.70022 29.5063C0.990072 30.1032 0.466924 30.8869 0.191855 31.7658C0.0184853 32.3543 -0.0381463 32.9701 0.0250598 33.5796C0.243454 33.8059 0.461849 34.0333 0.680243 34.2619C0.713842 34.8093 0.747441 35.3615 0.77744 35.909L0.833185 36.3836C0.958563 37.4508 1.08371 38.516 1.20703 39.5839C1.14853 39.6256 1.09004 39.6678 1.03137 39.7101C0.915503 39.7935 0.798931 39.8775 0.680243 39.9599C0.745041 40.2502 0.808939 40.5405 0.872837 40.8308C0.936735 41.121 1.00063 41.4113 1.06543 41.7016C1.15636 42.0827 1.3368 42.4375 1.59222 42.7374C1.80294 42.9896 2.06234 43.1982 2.3554 43.3511C2.68008 42.6905 3.06442 42.0601 3.50377 41.4675C4.17468 40.5545 4.96785 39.7352 5.8617 39.0317C6.04021 38.8906 6.24552 38.786 6.46559 38.7241C6.68565 38.6622 6.91604 38.6441 7.14327 38.6711L35.4265 42.0291C36.997 42.4702 38.493 43.1367 39.8664 44.0073C43.8443 46.5258 45.6934 50.0801 46.4374 51.8005C48.7957 52.0665 51.177 52.0665 53.5352 51.8005C57.7201 51.3191 61.7661 50.0225 65.4377 47.9861V35.3343C65.3228 33.1881 65.4996 31.0364 65.9633 28.9363C66.4265 26.8659 66.9521 25.881 67.1117 25.5925C67.5628 24.7754 68.4244 23.5824 70.2196 22.154L71.8419 20.8794C71.5455 20.2445 71.2011 19.5622 70.7932 18.8539C70.3936 18.1646 69.9892 17.5367 69.5932 16.9704H72.5163C72.8036 16.6603 72.9743 16.2626 72.9999 15.8435ZM38.7288 38.0728C34.8205 39.0483 23.932 38.0385 23.3092 37.9806H23.2912C19.2761 37.5809 16.0362 37.1174 13.3963 36.6858C8.77882 35.9315 7.66645 35.5472 6.51328 34.7431C5.05892 33.7286 4.63174 32.8052 4.45894 32.2825C3.85896 30.4628 4.81173 28.7743 4.93893 28.5615C5.37656 27.8195 6.00267 27.2026 6.75568 26.7713C6.46505 25.9228 6.39897 25.0153 6.56368 24.1346C6.94407 22.1529 8.39363 21.0603 8.76322 20.7907C8.46323 21.0757 6.81808 22.6944 7.04247 24.8878C7.09557 25.396 7.24109 25.8906 7.47206 26.348C15.671 26.676 23.9872 27.13 32.4206 27.7102C34.1629 27.8308 35.8993 27.9565 37.6297 28.0874L49.0053 22.5301C45.5174 24.5252 42.0283 26.5191 38.538 28.5119C39.2473 28.8257 39.9072 29.2383 40.4976 29.7368C41.6975 30.749 42.2507 31.819 42.6959 32.7035C43.2395 33.7807 43.5455 34.4109 43.3175 35.1061C43.1543 35.6027 42.7871 35.9173 42.2663 36.2885L42.2382 36.3081C41.4704 36.8406 40.2378 37.6955 38.7288 38.0728ZM54.5864 49.7881C53.0579 50.0327 51.5099 50.1392 49.9617 50.1062C48.4882 46.2225 45.8518 42.8717 42.4019 40.4979C44.9651 40.22 47.125 40.103 48.7234 40.051C56.0972 39.8145 57.6463 40.7462 58.4263 41.3693C59.9419 42.5801 60.7674 44.401 60.8646 44.6198C61.2842 45.5637 61.5386 46.5707 61.617 47.5983C59.3931 48.6588 57.025 49.396 54.5864 49.7869V49.7881ZM63.7277 26.7926C63.7095 26.8594 63.6779 26.9219 63.6349 26.9765C63.5918 27.0312 63.5381 27.0768 63.477 27.1107C56.8939 31.3768 53.3672 32.4091 53.3672 32.4091C51.6525 32.9116 49.4073 33.4945 46.735 33.9994L43.1507 28.915L42.0395 28.6325L43.5803 28.4551L61.0026 24.4988L62.9802 22.5833L61.7562 24.4952C62.6754 25.3986 63.3438 26.1021 63.5838 26.4036C63.6335 26.4551 63.6719 26.5161 63.6967 26.5828C63.7214 26.6495 63.732 26.7205 63.7277 26.7914V26.7926Z" fill="red"/>
<path d="M43 51.9992C34.0716 52.0346 25.1784 50.902 16.5558 48.6314C11.9294 47.4092 7.39902 45.8614 3 44C7.55376 45.3903 12.4227 46.7008 17.6068 47.8822C25.9736 49.7804 34.4551 51.1555 43 51.9992Z" fill="white"/>
<path d="M39 45.9366C31.4946 46.2177 23.9831 45.5635 16.646 43.9896C13.0368 43.213 9.48112 42.2145 6 41C10.1251 42.0125 14.552 42.9458 19.271 43.7348C25.8005 44.8276 32.387 45.5626 39 45.9366Z" fill="white"/>
<path d="M66 46L66.2179 31.2894C66.4309 29.3599 67.07 26.6405 69.0176 24.1289C69.3225 23.7346 69.6505 23.3577 70 23C68.9549 24.5859 68.2154 26.3428 67.8174 28.185C67.6117 29.1487 67.502 30.1293 67.49 31.1134C67.369 34.8401 67.2473 38.5675 67.1248 42.2958C66.7498 43.5285 66.3749 44.7633 66 46Z" fill="white"/>
<path d="M29 5.23959C27.0963 5.48696 26.0397 6.19257 25.421 6.85812C24.0134 8.37298 23.6053 11.0234 23.5292 10.9998C23.5184 10.9998 23.5292 10.9492 23.5292 10.9492C23.5827 10.5781 23.3138 8.3718 21.5862 6.85812C20.1774 5.62361 18.5354 5.49403 18 5.47401C19.468 5.26054 20.8209 4.56432 21.8408 3.49738C22.7494 2.52847 23.3383 1.30853 23.5292 0C23.663 1.33106 24.2504 2.57738 25.1949 3.5339C26.2147 4.53722 27.5657 5.14283 29 5.23959Z" fill="white"/>
<path d="M20 9.42928C19.6738 9.4596 19.2906 9.55684 19.0162 9.84123C18.5823 10.2929 18.5063 11.1168 18.5084 10.9861C18.5087 10.7644 18.4607 10.5453 18.3678 10.3436C18.2749 10.1419 18.1393 9.96233 17.9701 9.81718C17.6952 9.59972 17.3517 9.48498 17 9.49306C17.3808 9.43957 17.7337 9.26508 18.0057 8.99583C18.2778 8.72657 18.4542 8.37711 18.5084 8C18.5446 8.37508 18.7147 8.72508 18.9881 8.98707C19.2615 9.24905 19.6203 9.40585 20 9.42928Z" fill="white"/>
<path d="M54 4.03449C53.6507 4.05671 53.3082 4.12846 52.987 4.24675C52.7515 4.3349 52.5385 4.46107 52.3601 4.6182C52.204 4.75895 52.0727 4.91801 51.9702 5.09047C51.9376 5.14354 51.91 5.1966 51.8862 5.23693C51.8862 5.23693 51.8435 5.31547 51.8022 5.40356C51.7155 5.59882 51.6414 5.79793 51.5802 6C51.5339 5.86522 51.485 5.74954 51.4411 5.65508C51.4198 5.6052 51.3746 5.51499 51.3157 5.40143C51.2653 5.29544 51.2054 5.1929 51.1364 5.09472C50.9985 4.90079 50.822 4.72846 50.6148 4.5853C50.3729 4.41768 50.0943 4.29217 49.7949 4.21597C49.5376 4.14892 49.2692 4.11739 49 4.12258C49.6331 4.0462 50.2197 3.79799 50.6719 3.41524C51.1241 3.03249 51.4173 2.53587 51.5075 2C51.5661 2.51663 51.8316 3.00079 52.2598 3.37225C52.7263 3.76366 53.3445 3.9989 54 4.03449Z" fill="white"/>
<path d="M59 47C58.7266 46.0345 58.0843 44.3648 56.4973 42.9485C56.1804 42.6698 55.8437 42.4121 55.4897 42.177C52.5576 40.2747 46.7191 41.2203 46 41.3426C49.5255 41.2501 51.9991 41.9444 53.3232 42.4183C54.6031 42.8768 55.3233 43.2913 55.7096 43.5381C57.0818 44.4274 58.2099 45.6143 59 47Z" fill="white"/>
<path d="M35.5377 8.57534C37.2575 8.22631 39.108 8.0867 41 8L32.5904 13.9797L24 14C26.5931 12.1456 29.9692 9.71139 35.5377 8.57534Z" fill="red"/>
<path d="M61 13.97L47 14C47.8555 12.017 48.7109 10.0348 49.5664 8.05328C52.6555 8.00714 56.1243 7.98568 59.8757 8.01035C60.1085 8.76147 60.3256 9.58234 60.51 10.4601C60.7515 11.6204 60.9152 12.7925 61 13.97Z" fill="white"/>
</svg>
