<svg width="5" height="4" viewBox="0 0 5 4" fill="none" xmlns="http://www.w3.org/2000/svg">
<path d="M5 2.03449C4.65066 2.05671 4.30822 2.12846 3.98697 2.24675C3.75147 2.3349 3.53854 2.46107 3.36009 2.6182C3.20398 2.75895 3.07265 2.91801 2.97016 3.09048C2.93756 3.14354 2.90998 3.1966 2.88616 3.23693C2.88616 3.23693 2.84353 3.31547 2.80216 3.40355C2.71548 3.59882 2.6414 3.79793 2.58024 4C2.53385 3.86522 2.48496 3.74954 2.44108 3.65508C2.41976 3.6052 2.37463 3.51499 2.3157 3.40143C2.26534 3.29544 2.2054 3.1929 2.13641 3.09472C1.99845 2.90079 1.82201 2.72846 1.61485 2.5853C1.37293 2.41768 1.09428 2.29217 0.794888 2.21597C0.537568 2.14892 0.269166 2.11739 0 2.12258C0.633059 2.0462 1.21974 1.79799 1.67191 1.41524C2.12407 1.03249 2.4173 0.535875 2.50752 0C2.56615 0.51663 2.83156 1.00079 3.25978 1.37225C3.72633 1.76366 4.34448 1.9989 5 2.03449Z" fill="white"/>
</svg>
