<svg width="29" height="29" viewBox="0 0 29 29" fill="none" xmlns="http://www.w3.org/2000/svg">
<path d="M29 22.1228V18.6842L14.7458 11.3158L8.1651 18.6025L10.322 29H22C26 29 29 26 29 22.1228Z" fill="#0000FF"/>
<path d="M29 7C29 4.5 28 2 24.7886 0.534241L15.7288 10.3333L29 17.2105V7Z" fill="#00FF00"/>
<path d="M7.00002 0C5.70705 0 5.00002 0.264288 4.40106 0.457788L7.86442 17.2105L23.6468 0.177739C23.0906 0.076543 22.5 0 22 0H7.00002Z" fill="#FF0000"/>
<path d="M3.33788e-06 7C3.33788e-06 4.5 0.999999 2.5 3.27408 1L9.33898 29H7C3 29 -9.85369e-06 26 0 22.1228L3.33788e-06 7Z" fill="#FFFF00"/>
</svg>
