<svg width="148" height="29" viewBox="0 0 148 29" fill="none" xmlns="http://www.w3.org/2000/svg">
<path fill-rule="evenodd" clip-rule="evenodd" d="M60.5633 5.8752C59.6488 5.3184 58.5553 5.04 57.2828 5.04C55.9109 5.04 54.6832 5.3712 53.5997 6.0336C52.5161 6.696 51.6612 7.64639 51.0349 8.8848C50.4086 10.1232 50.0955 11.5872 50.0955 13.2768C50.0955 14.9472 50.4086 16.4064 51.0349 17.6544C51.6612 18.9024 52.5161 19.8576 53.5997 20.52C54.6832 21.1824 55.9109 21.5136 57.2828 21.5136C58.5553 21.5136 59.6488 21.2352 60.5633 20.6784C61.4779 20.1216 62.144 19.3632 62.5615 18.4032V21.312H67.6612V0H62.5615V8.1504C62.144 7.1904 61.4779 6.432 60.5633 5.8752ZM5.56971 21.312V14.1696H8.73095C10.3812 14.1696 11.7828 13.8864 12.936 13.32C14.0892 12.7536 14.959 11.976 15.5455 10.9872C16.132 9.99837 16.4253 8.87039 16.4253 7.60318C16.4253 5.56797 15.7692 3.95038 14.457 2.75038C13.1448 1.55037 11.2361 0.950378 8.73095 0.950378H0.469971V21.312H5.56971ZM11.2361 7.6032C11.2361 9.35041 10.2122 10.224 8.16431 10.224H5.5697V4.9248H8.16431C10.2122 4.9248 11.2361 5.8176 11.2361 7.6032ZM24.0302 8.26559C24.6664 7.28638 25.4865 6.50879 26.4906 5.93279C27.4946 5.35678 28.5831 5.06879 29.7562 5.06879V10.3392H28.2949C26.9429 10.3392 25.8941 10.6176 25.1485 11.1744C24.4029 11.7312 24.0302 12.672 24.0302 13.9968V21.312H18.9304V5.24159H24.0302V8.26559ZM44.116 6.03358C42.8137 5.37117 41.3375 5.03998 39.6873 5.03998C38.037 5.03998 36.5558 5.37117 35.2436 6.03358C33.9314 6.69598 32.9025 7.65117 32.1569 8.89918C31.4114 10.1472 31.0386 11.6064 31.0386 13.2768C31.0386 14.9472 31.4114 16.4064 32.1569 17.6544C32.9025 18.9024 33.9314 19.8576 35.2436 20.52C36.5558 21.1824 38.037 21.5136 39.6873 21.5136C41.3375 21.5136 42.8137 21.1824 44.116 20.52C45.4183 19.8576 46.4422 18.9024 47.1877 17.6544C47.9333 16.4064 48.3061 14.9472 48.3061 13.2768C48.3061 11.6064 47.9333 10.1472 47.1877 8.89918C46.4422 7.65117 45.4183 6.69598 44.116 6.03358ZM39.6873 9.30237C38.713 9.30237 37.8929 9.64316 37.2269 10.3248C36.5608 11.0064 36.2278 11.9904 36.2278 13.2768C36.2278 14.5632 36.5608 15.5424 37.2269 16.2144C37.8929 16.8864 38.713 17.2224 39.6873 17.2224C40.6615 17.2224 41.4766 16.8864 42.1328 16.2144C42.7889 15.5424 43.1169 14.5632 43.1169 13.2768C43.1169 11.9904 42.7889 11.0064 42.1328 10.3248C41.4766 9.64316 40.6615 9.30237 39.6873 9.30237ZM58.9231 9.35999C57.8296 9.35999 56.9498 9.70558 56.2837 10.3968C55.6177 11.088 55.2847 12.048 55.2847 13.2768C55.2847 14.5056 55.6177 15.4656 56.2837 16.1568C56.9498 16.848 57.8296 17.1936 58.9231 17.1936C59.9967 17.1936 60.8765 16.8384 61.5624 16.128C62.2484 15.4176 62.5913 14.4672 62.5913 13.2768C62.5913 12.0672 62.2484 11.112 61.5624 10.4112C60.8765 9.71038 59.9967 9.35999 58.9231 9.35999ZM87.7321 21.312V5.24158H82.6025V13.7664C82.6025 14.9376 82.3043 15.84 81.7079 16.4736C81.1114 17.1072 80.2962 17.424 79.2624 17.424C78.2683 17.424 77.478 17.1216 76.8914 16.5168C76.3049 15.912 76.0117 15.0624 76.0117 13.968V5.24158H70.9418V14.5728C70.9418 16.7232 71.5034 18.4128 72.6268 19.6416C73.7501 20.8704 75.2661 21.4848 77.1748 21.4848C78.4273 21.4848 79.5258 21.2064 80.4702 20.6496C81.4146 20.0928 82.1254 19.344 82.6025 18.4032V21.312H87.7321ZM98.7666 5.03998C100.914 5.03998 102.713 5.61117 104.165 6.75358C105.616 7.89598 106.531 9.46557 106.908 11.4624H101.51C101.351 10.7712 101.023 10.2336 100.526 9.84958C100.029 9.46558 99.4028 9.27358 98.6473 9.27358C97.7526 9.27358 97.017 9.61437 96.4404 10.296C95.8638 10.9776 95.5756 11.9712 95.5756 13.2768C95.5756 14.5824 95.8638 15.576 96.4404 16.2576C97.017 16.9392 97.7526 17.28 98.6473 17.28C99.4028 17.28 100.029 17.088 100.526 16.704C101.023 16.32 101.351 15.7824 101.51 15.0912H106.908C106.531 17.088 105.616 18.6576 104.165 19.8C102.713 20.9424 100.914 21.5136 98.7666 21.5136C97.1363 21.5136 95.6899 21.1824 94.4274 20.52C93.1649 19.8576 92.1757 18.9024 91.46 17.6544C90.7442 16.4064 90.3864 14.9472 90.3864 13.2768C90.3864 11.5872 90.7393 10.1232 91.4451 8.88478C92.1509 7.64637 93.14 6.69598 94.4125 6.03358C95.6849 5.37117 97.1363 5.03998 98.7666 5.03998ZM118.987 21.312V17.0784H117.376C116.74 17.0784 116.288 16.9536 116.019 16.704C115.751 16.4544 115.617 16.0128 115.617 15.3792V9.38882H118.957V5.24162H115.617V1.29602H110.517V5.24162H108.28V9.38882H110.517V15.2928C110.517 17.4432 111.059 18.984 112.142 19.9152C113.226 20.8464 114.742 21.312 116.69 21.312H118.987ZM126.949 0V21.312H121.85V0H126.949ZM138.312 15.0912L134.316 5.24158H128.62L135.598 20.7072L131.691 28.9728H137.298L147.676 5.24158H142.04L138.312 15.0912Z" fill="#173A56"/>
</svg>
